<svg width="24" height="24" viewBox="0 0 24 24" fill="none" xmlns="http://www.w3.org/2000/svg">
<path d="M17 17C15.8954 17 15 17.8954 15 19C15 20.1046 15.8954 21 17 21C18.1046 21 19 20.1046 19 19C19 17.8954 18.1046 17 17 17ZM17 17H9.29395C8.83269 17 8.60197 17 8.41211 16.918C8.24466 16.8456 8.09934 16.7288 7.99349 16.5802C7.87348 16.4118 7.82609 16.1863 7.72945 15.7353L5.27148 4.26477C5.17484 3.81376 5.12587 3.58825 5.00586 3.4198C4.90002 3.27123 4.75525 3.15441 4.5878 3.08205C4.39794 3 4.16779 3 3.70653 3H3M6 6H18.8732C19.595 6 19.9557 6 20.1979 6.15036C20.4101 6.28206 20.5652 6.48838 20.6329 6.72876C20.7102 7.00319 20.611 7.34996 20.411 8.04346L19.0264 12.8435C18.9068 13.2581 18.8469 13.4655 18.7256 13.6193C18.6185 13.7551 18.4772 13.8608 18.3171 13.926C18.1356 14 17.9199 14 17.4883 14H7.73047M8 21C6.89543 21 6 20.1046 6 19C6 17.8954 6.89543 17 8 17C9.10457 17 10 17.8954 10 19C10 20.1046 9.10457 21 8 21Z" stroke="white" stroke-width="2" stroke-linecap="round" stroke-linejoin="round"/>
</svg>
